#!OML:ASF F:\VICON\USERDATA\INSTALL\rory3\rory3.ASF
:FULLY-SPECIFIED
:DEGREES
27
root -0.04956529403294918 17.428376263000516 -0.6072796692103122 5.496765835307868 1.805531012435757 2.3103315380351988
lfemur 1.315317207347249 -0.5748684620359152 -28.017594758240037
ltibia 28.49501390721468
lfoot -12.474181161690135 -3.6073362444690185
ltoes -9.19495710107779
rfemur -36.50666639512406 -4.3054312211201875 18.960870906379583
rtibia 84.89497603018755
rfoot -0.8381998231518291 -1.8590212321830148
rtoes -1.2679818416323052
lowerback 14.567925252526203 -0.13089501864827047 -3.2557945173880185
upperback -0.3678175049260295 -0.8571611189995862 0.21134469320612892
thorax -8.351345597840396 -0.04989374556128623 2.039881493976216
lowerneck -20.032808011677208 -3.4404659807040243 -2.0200922897130194
upperneck 10.566767453687957 -4.337079017347028 3.4916699440061074
head 6.5965491020432365 -2.1107855839680942 0.9947130453976921
lclavicle 4.287488207722349e-15 5.758861652268783e-17
lhumerus -32.82229357322546 -13.521492694414846 93.70134640131813
lradius 106.40294151228782
lwrist 29.804245078970446
lhand -30.07503333102089 2.54290644498578
lfingers 7.125019999999998
lthumb -3.490530550588243 32.11822692200127
rclavicle 4.287527000472553e-15 5.761646220425725e-17
rhumerus -48.94009949283998 14.12208592618608 -102.74250259168348
rradius 101.0742804642298
rwrist -9.622697825442813
rhand -21.63111414903374 36.17174632468024
rfingers 7.125019999999998
rthumb 5.157313499880218 6.055448708472008
28
root -0.023882356404989424 17.65531496318368 -0.25097311381465737 5.574341397788413 0.4505814379103432 1.9551951308662092
lfemur 3.1445036733387433 -0.3925938102907388 -28.156088259683546
ltibia 24.271594025475483
lfoot -6.456389989461462 -6.455766156979019
ltoes -12.153373227178918
rfemur -38.357615182816346 -3.035634798203053 19.93466917602469
rtibia 79.81062339404228
rfoot -2.2121530437085415 -1.493537138386531
rtoes -3.5327312043560823
lowerback 14.06745501565294 -0.37453682006799616 -3.2442935028491053
upperback -0.6401862838480045 -1.1607780956821605 0.5821975911523466
thorax -8.26103057750096 -0.20531877237493268 2.2645819379594454
lowerneck -19.898271106271572 -3.2217458422722975 -2.093745560401866
upperneck 10.995685858994381 -4.167495691456188 3.342517507706755
head 6.725956441991345 -1.9828464100511747 0.9859246760287486
lclavicle 4.287488207728126e-15 5.758861652683463e-17
lhumerus -33.02711208553285 -13.05686477346595 93.41236750461601
lradius 107.30542815640868
lwrist 29.79868863511774
lhand -30.52068298568547 3.3249076317647357
lfingers 7.125019999999998
lthumb -3.8828515219278286 32.81317384674866
rclavicle 4.287527000495218e-15 5.761646222052613e-17
rhumerus -50.55030059698724 14.051048045444526 -102.42833743819686
rradius 101.65526830012696
rwrist -9.737348603278784
rhand -21.60567530506558 36.232992365844275
rfingers 7.125019999999998
rthumb 5.248237787689141 6.1370800672136365
29
root 0.0024754758079066352 17.897316901313356 0.41120017442479373 5.6460637524917665 -1.4396956632782705 1.4152700789489971
lfemur 5.691517066483179 -0.4714880821610654 -28.06365298622463
ltibia 20.829085192237198
lfoot 0.12535194823381768 -9.409425921196226
ltoes -14.154372903472701
rfemur -39.651412157513974 -1.3651637169842212 21.084197901465274
rtibia 73.66206839424252
rfoot -3.131486946132926 -1.8160856962585794
rtoes -4.948372157186555
lowerback 13.557838796349968 -0.4532320005144108 -3.092354001069282
upperback -0.948848187443335 -1.2574667388136804 0.96417858733191
thorax -8.178159411723612 -0.21599664809245833 2.3943430088666044
lowerneck -19.83854881959271 -3.1329369455439884 -2.1961856509540976
upperneck 11.300474689920675 -4.033694430787921 3.2043225084480906
head 6.8095167048989005 -1.8866504622661218 0.9557988596819759
lclavicle 4.287488207727557e-15 5.758861652642657e-17
lhumerus -33.78216225028963 -12.670949213486832 93.26177300554974
lradius 108.42609465596522
lwrist 29.703395811917755
lhand -31.58750174886127 4.4465387014620195
lfingers 7.125019999999998
lthumb -4.780470668220531 33.97649461063959
rclavicle 4.287527000471544e-15 5.761646220353297e-17
rhumerus -51.9765171341169 13.996107372840239 -102.03768226339395
rradius 102.05732042576383
rwrist -9.738014893166635
rhand -21.32208225101529 36.895531171718645
rfingers 7.125019999999998
rthumb 5.422313071182563 6.716717399781648
30
root 0.026485897921446677 18.10065924643417 1.2304637230394073 5.704156249947426 -3.6687270170227486 0.682657240011717
lfemur 7.807080345432151 -1.0979163743817422 -28.260388709295015
ltibia 19.35762756820393
lfoot 6.9776656052145 -11.92658523855502
ltoes -15.325311232212604
rfemur -39.71260914715048 0.5346363197610087 22.379568497105584
rtibia 66.65704196335138
rfoot -3.3564642280478743 -2.681027330292462
rtoes -7.487656069012491
lowerback 12.947278540703081 -0.4495072624789933 -2.7687958154048076
upperback -1.289925913920897 -1.3689201399010749 1.3150046367867716
thorax -8.147750691744312 -0.22882845472646662 2.489956221820388
lowerneck -19.594083403684255 -3.0010454816415537 -2.2362643392812678
upperneck 11.564390513110865 -3.9209781569368873 3.103717206801169
head 6.857730066662931 -1.8036206966948105 0.9399398490465908
lclavicle 4.287488207725621e-15 5.758861652503664e-17
lhumerus -34.71830649470016 -12.514836365842394 93.35150699057203
lradius 109.96435696616851
lwrist 29.780597958435354
lhand -30.707993218515135 3.6767382293585182
lfingers 7.125019999999998
lthumb -4.105753608821136 33.24837070073506
rclavicle 4.2875270005756005e-15 5.761646227822536e-17
rhumerus -53.27065492526278 13.934500478113028 -101.5979801298385
rradius 102.44743894776047
rwrist -9.57013582464238
rhand -20.933529099462152 37.5596786092919
rfingers 7.125019999999998
rthumb 5.6255446308117385 7.3235323378072295
